<svg width="198" height="70" viewBox="0 0 198 70" fill="none" xmlns="http://www.w3.org/2000/svg">
<path d="M30.712 70L3.352 0.879997H16.792L44.152 70H30.712ZM0.76 70V0.879997H16.696V70H0.76ZM34.456 70V0.879997H50.392V70H34.456ZM67.933 59.248V47.152H92.509V59.248H67.933ZM85.789 0.879997L68.605 70H53.245L70.429 0.879997H85.789ZM85.981 0.879997L103.165 70H87.805L70.621 0.879997H85.981ZM131.441 50.032V20.944H147.378V50.032H131.441ZM118.193 70V57.904H124.817V70H118.193ZM118.193 12.976V0.879997H124.817V12.976H118.193ZM118.193 12.976V0.879997H124.817V12.976H118.193ZM147.378 21.04H131.441C131.441 18.48 130.833 16.496 129.617 15.088C128.465 13.68 126.865 12.976 124.817 12.976V0.879997C129.105 0.879997 132.945 1.776 136.337 3.568C139.729 5.296 142.417 7.696 144.401 10.768C146.385 13.776 147.378 17.2 147.378 21.04ZM147.378 49.84C147.378 53.68 146.385 57.136 144.401 60.208C142.417 63.216 139.729 65.616 136.337 67.408C132.945 69.136 129.105 70 124.817 70V57.904C126.865 57.904 128.465 57.2 129.617 55.792C130.833 54.384 131.441 52.4 131.441 49.84H147.378ZM104.177 70V0.879997H120.113V70H104.177ZM162.632 59.248V47.152H187.208V59.248H162.632ZM180.488 0.879997L163.304 70H147.944L165.128 0.879997H180.488ZM180.68 0.879997L197.864 70H182.504L165.32 0.879997H180.68Z" fill="white"/>
</svg>
